<?xml version="1.0" encoding="utf-8"?>
<!-- Generator: Adobe Illustrator 21.0.0, SVG Export Plug-In . SVG Version: 6.00 Build 0)  -->
<svg version="1.1" id="Layer_1" xmlns="http://www.w3.org/2000/svg" xmlns:xlink="http://www.w3.org/1999/xlink" x="0px" y="0px"
	 viewBox="0 0 760.6 239.4" style="enable-background:new 0 0 760.6 239.4;" xml:space="preserve">
<style type="text/css">
	.st0{fill:url(#path4931_1_);}
	.st1{fill:#3D3D3D;}
	.st2{fill:#515252;}
	.st3{fill:#373737;}
</style>
<g id="g4909" transform="translate(-44.946716,153.87614)">
	<g id="g4911">
		<g id="g4917">
			<g id="g4919">
				
					<radialGradient id="path4931_1_" cx="-255.3398" cy="353.2086" r="1" gradientTransform="matrix(-0.8688 147.32 200.7368 1.1839 -70935.5 37101.3867)" gradientUnits="userSpaceOnUse">
					<stop  offset="0" style="stop-color:#F9FAFB"/>
					<stop  offset="0.7359" style="stop-color:#CFDADF"/>
					<stop  offset="0.7359" style="stop-color:#CFDADF"/>
					<stop  offset="1" style="stop-color:#F1F3F5"/>
				</radialGradient>
				<path id="path4931" class="st0" d="M169.1-127.6c-16.4,2.2-32.4,9-45.3,19.1l0,0c-14.3,11.3-23.5,25.7-26.6,41.7l0,0
					c-0.9,4.8-1.3,10.1-1.8,15.7l0,0c-1.6,21.8-3.9,35.1-21.8,35.1l0,0c-2.1,0-4,1.2-4.9,3l0,0c-0.9,1.9-0.7,4.1,0.5,5.8l0,0
					c24.1,32,65.5,35.7,94.5,35.7l0,0c0.7,0,1.5,0,2.2,0l0,0c0.5,0,1.1,0,1.7,0l0,0c0.8,0,1.7,0,2.6,0l0,0c1,0,2,0,3,0l0,0
					c13.6,0,27.9-0.7,40.6-5.4l0,0c22.7-8.5,41.8-27.5,48.7-48.4l0,0c7.8-23.7,4.2-47.6-10.2-67.4l0,0c-16-22-43.3-35.7-71.5-35.7
					l0,0C177-128.4,173-128.1,169.1-127.6"/>
			</g>
		</g>
	</g>
</g>
<g id="g4935">
	<g id="g4941" transform="translate(406.7632,253.5488)">
		<path id="path4943" class="st1" d="M-270.8-233.5c-4.2,0-8.4,0.3-12.5,0.8c-17.3,2.3-34.3,9.5-47.9,20.3
			c-15.3,12.1-25.2,27.7-28.6,45c-1,5.2-1.4,10.9-1.9,16.4c-0.7,8.6-1.3,17.5-4.1,23.4c-1.9,4-4.7,6.6-12.2,6.6
			c-4.2,0-8,2.4-9.8,6.1c-1.9,3.7-1.4,8.2,1.1,11.5c25.6,34,68.7,37.9,98.9,37.9c0.8,0,1.5,0,2.2,0c0.5,0,1.1,0,1.6,0
			c0.8,0,1.7,0,2.6,0c1,0,2,0,3,0c14.1,0,29-0.7,42.6-5.8c11.3-4.2,22.1-11.1,31.2-19.8c9.8-9.4,17-20.5,20.8-32.1
			c4.3-13,5.4-26.2,3.2-39c-2-12-6.8-23.2-14.1-33.4c-8.3-11.5-19.7-21.1-32.9-27.7C-241.1-230-256-233.5-270.8-233.5 M-270.8-222.6
			c49.5,0,93.5,44.2,76.4,95.9c-6.9,20.9-26,37.8-45.4,45c-12.7,4.7-27.4,5.1-38.7,5.1c-2,0-3.8,0-5.6,0c-0.6,0-1.1,0-1.7,0
			c-0.7,0-1.4,0-2.2,0c-28.3,0-67.5-3.5-90.1-33.5c31,0,24.9-34.7,28.9-55.3c6.1-31.3,37.1-52.4,67.2-56.5
			C-278.2-222.3-274.5-222.6-270.8-222.6"/>
	</g>
</g>
<g id="g4947">
	<g id="g4953" transform="translate(381.5952,121.6973)">
		<path id="path4955" class="st1" d="M-277.1,63.1c1,12.1-7.9,22.8-20.1,23.8C-309.3,88-320,79-321,66.9c-1-12.1,7.9-22.8,20.1-23.8
			C-288.8,42-278.1,51-277.1,63.1"/>
	</g>
</g>
<g id="g4959">
	<g id="g4965" transform="translate(369.1758,120.37939)">
		<path id="path4967" class="st2" d="M-280.2,66.1c0,3.9-2.8,7.1-6.2,7.1c-3.4,0-6.2-3.2-6.2-7.1s2.8-7.1,6.2-7.1
			C-283,58.9-280.2,62.1-280.2,66.1"/>
	</g>
</g>
<g id="g4971">
	<g id="g4977" transform="translate(442.02541,121.6973)">
		<path id="path4979" class="st1" d="M-262,63.1c1,12.1-7.9,22.8-20.1,23.8c-12.1,1-22.8-7.9-23.8-20.1c-1-12.1,7.9-22.8,20.1-23.8
			C-273.7,42-263,51-262,63.1"/>
	</g>
</g>
<g id="g4983">
	<g id="g4989" transform="translate(429.60741,120.37939)">
		<path id="path4991" class="st2" d="M-265.1,66.1c0,3.9-2.8,7.1-6.2,7.1c-3.4,0-6.2-3.2-6.2-7.1s2.8-7.1,6.2-7.1
			C-267.9,58.9-265.1,62.1-265.1,66.1"/>
	</g>
</g>
<g id="g4995">
	<g id="g5001" transform="translate(391.9561,201.02831)">
		<path id="path5003" class="st1" d="M-274.5-115.4c0,5.8-4.7,10.5-10.5,10.5c-5.8,0-10.5-4.7-10.5-10.5c0-5.8,4.7-10.5,10.5-10.5
			C-279.2-125.9-274.5-121.2-274.5-115.4"/>
	</g>
</g>
<g id="g5007">
	<g id="g5013" transform="translate(432.22659,202.3452)">
		<path id="path5015" class="st1" d="M-264.4-118.3c0,5.8-4.7,10.5-10.5,10.5c-5.8,0-10.5-4.7-10.5-10.5c0-5.8,4.7-10.5,10.5-10.5
			C-269.2-128.9-264.4-124.2-264.4-118.3"/>
	</g>
</g>
<g id="g5019">
	<g id="g5025" transform="translate(403.78371,155.8149)">
		<path id="path5027" class="st1" d="M-271.6-13.6c-9,0-17.7-2.9-24.7-8.3c-7.1-5.4-11.6-13-12.5-20.6c-0.3-3,1.8-5.7,4.8-6.1
			c3-0.3,5.7,1.8,6.1,4.8c1.3,11.7,15.3,19.5,27.1,19.2c15-0.4,24.9-9.4,26.9-18c0.7-2.9,3.6-4.8,6.6-4.1c2.9,0.7,4.8,3.6,4.1,6.6
			c-1.7,7.1-6.2,13.6-12.8,18.4c-6.9,5-15.3,7.8-24.5,8C-270.8-13.7-271.2-13.6-271.6-13.6"/>
	</g>
</g>
<g id="g5031">
	<g id="g5037" transform="translate(519.59959,148.91409)">
		<path id="path5039" class="st3" d="M-242.6,1.9l-28.9-83.5c-0.7-2-1.5-5.3-1.5-8.2c0-7.7,6.2-15.2,16.1-15.2
			c8.4,0,13.9,5.3,16.3,13l18.1,60.1l18.6-59.9c2.4-8,8.6-13.5,17.2-13.5h2c8.6,0,14.8,5.5,17.2,13.5l18.8,60.1l18.6-60.5
			c2.2-7.1,7.3-12.8,16.1-12.8c9.3,0,15.7,7.1,15.7,15.5c0,2.2-0.7,5.3-1.1,6.8l-29.8,84.6c-3.5,10.4-10.4,15-18.6,15h-1.1
			c-8.2,0-15-4.6-18.1-14.4l-18.8-59.6l-19,59.6c-3.1,9.7-9.9,14.4-18.1,14.4h-1.1C-232.2,16.9-239.1,12.3-242.6,1.9"/>
	</g>
</g>
<g id="g5043">
	<g id="g5049" transform="translate(694.00391,172.061)">
		<path id="path5051" class="st3" d="M-199-50.2v-6c-5.7-2.7-13.3-4.4-21.4-4.4c-14.4,0-23.2,5.7-23.2,16.3v0.4
			c0,9.1,7.5,14.4,18.3,14.4C-209.6-29.4-199-38.1-199-50.2 M-276.1-42.5v-0.4c0-25.8,19.7-37.8,47.7-37.8c11.9,0,20.5,2,28.9,4.9
			v-2c0-13.9-8.6-21.6-25.4-21.6c-9.3,0-16.8,1.3-23.2,3.3c-2,0.7-3.3,0.9-4.9,0.9c-7.7,0-13.9-6-13.9-13.7c0-6,3.8-11,9.1-13
			c10.6-4,22.1-6.2,37.8-6.2c18.3,0,31.6,4.9,40,13.3c8.8,8.8,12.8,21.9,12.8,37.8v53.9c0,9.1-7.3,16.1-16.3,16.1
			c-9.7,0-16.1-6.8-16.1-13.9v-0.2c-8.2,9.1-19.4,15-35.8,15C-257.8-6.2-276.1-19.1-276.1-42.5"/>
	</g>
</g>
<g id="g5055">
	<g id="g5061" transform="translate(723.6895,149.44341)">
		<path id="path5063" class="st3" d="M-191.6,0.7V0c0-6.4,2.2-10.6,7.5-16.3l55-60.7h-46.8c-7.5,0-13.7-6-13.7-13.5
			c0-7.5,6.2-13.7,13.7-13.7h73.6c9.5,0,16.3,5.5,16.3,13.5v0.7c0,6.4-2.2,10.6-7.5,16.3L-148.7-13h49C-92.2-13-86-6.8-86,0.7
			c0,7.5-6.2,13.5-13.7,13.5h-75.5C-184.7,14.2-191.6,8.6-191.6,0.7"/>
	</g>
</g>
<g id="g5067">
	<g id="g5073" transform="translate(872.8203,193.4409)">
		<path id="path5075" class="st3" d="M-154.3-98.3c-2-15-10.8-25.2-25-25.2c-13.9,0-23,9.9-25.6,25.2H-154.3z M-175.9-27.2
			c-35.6,0-61.8-25-61.8-61.2v-0.4c0-33.8,24.1-61.6,58.5-61.6c39.5,0,57,32.5,57,57c0,9.7-6.8,16.1-15.7,16.1h-66.5
			c3.3,15.2,13.9,23.2,28.9,23.2c9.3,0,17-2.9,23.9-8c2.4-1.8,4.6-2.7,8.2-2.7c7.5,0,13,5.7,13,13.3c0,4.4-2,7.7-4.4,9.9
			C-145.2-32.7-158.7-27.2-175.9-27.2"/>
	</g>
</g>
</svg>
