<svg xmlns="http://www.w3.org/2000/svg" viewBox="0 0 150 120"><defs><style>.a{fill:#9b59b6;}</style></defs><title>Plan de travail 9</title><path class="a" d="M107.87,92H42.13a8.74,8.74,0,0,1-8.73-8.73V36.73A8.74,8.74,0,0,1,42.13,28h65.74a8.74,8.74,0,0,1,8.73,8.73V83.27A8.74,8.74,0,0,1,107.87,92ZM42.13,33a3.73,3.73,0,0,0-3.73,3.73V83.27A3.73,3.73,0,0,0,42.13,87h65.74a3.73,3.73,0,0,0,3.73-3.73V36.73A3.73,3.73,0,0,0,107.87,33Z"/><path class="a" d="M74.64,70a6.77,6.77,0,0,1-4.74-1.92L35.13,33.94l3.5-3.56L73.41,64.52a1.77,1.77,0,0,0,2.47,0L111,30l3.5,3.57L79.39,68.09A6.78,6.78,0,0,1,74.64,70Z"/><rect class="a" x="93.8" y="55.83" width="5" height="40.95" transform="translate(-22.24 108.61) rotate(-53.63)"/><rect class="a" x="33.13" y="73.6" width="40.27" height="5" transform="translate(-34.75 46.4) rotate(-36.37)"/></svg>