<svg xmlns="http://www.w3.org/2000/svg" viewBox="0 0 150 120"><defs><style>.a{fill:#9b59b6;}</style></defs><title>Plan de travail 9 copie 2</title><path class="a" d="M100.61,92.72H50.23a6.05,6.05,0,0,1-6-6V39.45a9.21,9.21,0,0,1,9.21-9.21H97.45a9.21,9.21,0,0,1,9.22,9.21V86.67A6.05,6.05,0,0,1,100.61,92.72Zm-51.43-5h52.49V39.45a4.22,4.22,0,0,0-4.22-4.21H53.39a4.22,4.22,0,0,0-4.21,4.21Z"/><path class="a" d="M101.48,92.72H49.37a5.18,5.18,0,0,1-5.19-5.18V71.66h62.49V87.54A5.19,5.19,0,0,1,101.48,92.72Zm-52.3-5h52.49V76.66H49.18Z"/><path class="a" d="M75.42,92.72a2.5,2.5,0,0,1-2.5-2.5V74.58a2.5,2.5,0,0,1,5,0V90.22A2.5,2.5,0,0,1,75.42,92.72Z"/><path class="a" d="M84.72,92.72a2.5,2.5,0,0,1-2.5-2.5V74.58a2.5,2.5,0,0,1,5,0V90.22A2.5,2.5,0,0,1,84.72,92.72Z"/><path class="a" d="M94,92.72a2.5,2.5,0,0,1-2.5-2.5V74.58a2.5,2.5,0,0,1,5,0V90.22A2.5,2.5,0,0,1,94,92.72Z"/><path class="a" d="M66.12,92.72a2.5,2.5,0,0,1-2.5-2.5V74.58a2.5,2.5,0,0,1,5,0V90.22A2.5,2.5,0,0,1,66.12,92.72Z"/><path class="a" d="M56.82,92.72a2.5,2.5,0,0,1-2.5-2.5V74.58a2.5,2.5,0,0,1,5,0V90.22A2.49,2.49,0,0,1,56.82,92.72Z"/><path class="a" d="M104.17,72.43a2.5,2.5,0,0,1,0-5,9.34,9.34,0,0,0,0-18.67,2.5,2.5,0,0,1,0-5,14.34,14.34,0,0,1,0,28.67Z"/><path class="a" d="M45.83,72.43a14.34,14.34,0,0,1,0-28.67,2.5,2.5,0,0,1,0,5,9.34,9.34,0,0,0,0,18.67,2.5,2.5,0,0,1,0,5Z"/><path class="a" d="M96.52,61.44H54.32V49.68h42.2Zm-37.2-5h32.2V54.68H59.32Z"/><path class="a" d="M86.41,99.48h-22a5.88,5.88,0,1,1,0-11.76h22a5.88,5.88,0,1,1,0,11.76Zm-22-6.76a.88.88,0,1,0,0,1.76h22a.88.88,0,0,0,0-1.76Z"/><path class="a" d="M86.41,106.25h-22a5.89,5.89,0,0,1,0-11.77h22a5.89,5.89,0,0,1,0,11.77Zm-22-6.77a.89.89,0,0,0,0,1.77h22a.89.89,0,0,0,0-1.77Z"/><path class="a" d="M75.63,25.52a5.89,5.89,0,1,1,5.89-5.89A5.89,5.89,0,0,1,75.63,25.52Zm0-6.77a.89.89,0,1,0,.89.88A.89.89,0,0,0,75.63,18.75Z"/><path class="a" d="M75.63,35.24a2.43,2.43,0,0,1-2.5-2.35V23.38a2.51,2.51,0,0,1,5,0v9.51A2.43,2.43,0,0,1,75.63,35.24Z"/></svg>