<svg xmlns="http://www.w3.org/2000/svg" xmlns:xlink="http://www.w3.org/1999/xlink" viewBox="0 0 1023 457"><defs><style>.a{fill:none;}.b{clip-path:url(#a);}.c{fill:url(#b);}.d{opacity:0.2;}.e{fill:#6b3489;}.e,.f{stroke:#fff;stroke-miterlimit:10;stroke-width:4px;}.f{fill:#9b59b6;}</style><clipPath id="a"><polygon class="a" points="1024 385 0 457 0 0 1024 0 1024 385"/></clipPath><linearGradient id="b" x1="512" y1="457" x2="512" gradientUnits="userSpaceOnUse"><stop offset="0" stop-color="#8e44ae"/><stop offset="1" stop-color="#9b59b6"/></linearGradient></defs><title>Plan de travail 12</title><g class="b"><polygon class="c" points="1024 385 0 457 0 0 1024 0 1024 385"/><g class="d"><polygon class="e" points="-42 366 35.86 345.71 113.71 308 191.57 358.65 269.43 326 347.29 347.39 425.14 260 503 232.06 580.86 252 658.71 192.51 736.57 166 814.43 87.34 892.29 108 970.14 12.52 1048 -15 1048 473 -48 493 -42 366"/><circle class="f" cx="970" cy="13" r="10"/><circle class="f" cx="893" cy="107" r="10"/><circle class="f" cx="815" cy="86" r="10"/><circle class="f" cx="737" cy="166" r="10"/><circle class="f" cx="582" cy="252" r="10"/><circle class="f" cx="504" cy="232" r="10"/><circle class="f" cx="424" cy="261" r="10"/><circle class="f" cx="348" cy="346" r="10"/><circle class="f" cx="269" cy="326" r="10"/><circle class="f" cx="192" cy="358" r="10"/><circle class="f" cx="114" cy="309" r="10"/><circle class="f" cx="35" cy="346" r="10"/><circle class="f" cx="660" cy="193" r="10"/></g></g></svg>