<svg xmlns="http://www.w3.org/2000/svg" xmlns:xlink="http://www.w3.org/1999/xlink" viewBox="0 0 200 200"><defs><style>.a{opacity:0.2;}.b,.c{fill:#9b59b6;}.b{opacity:0.3;}.d{fill:url(#a);}.e{fill:#fff;}</style><linearGradient id="a" x1="40.71" y1="71.58" x2="121.45" y2="152.33" gradientUnits="userSpaceOnUse"><stop offset="0" stop-color="#8e44ae"/><stop offset="1" stop-color="#9b59b6"/></linearGradient></defs><title>Plan de travail 6 copie</title><g class="a"><path class="b" d="M93.59,65.8,53.62,135a17.14,17.14,0,0,0,14.84,25.71H148.4A17.14,17.14,0,0,0,163.24,135l-40-69.23A17.14,17.14,0,0,0,93.59,65.8Z"/><path class="c" d="M95.45,81.25l13-22.48,38.2,66.17a5.87,5.87,0,0,0,8,2.14l2.32-1.33a5.87,5.87,0,0,0,2.14-8l-40-69.25a12.36,12.36,0,0,0-21.41,0L83,74a5.88,5.88,0,0,0,2.14,8l2.32,1.34A5.87,5.87,0,0,0,95.45,81.25Z"/><rect class="c" x="44.41" y="105.52" width="49.09" height="14.41" rx="5.87" transform="translate(-63.14 116.08) rotate(-60)"/><rect class="c" x="98.73" y="151.4" width="15.85" height="14.41" rx="5.87"/><path class="c" d="M176,147l-6-10.35a5.88,5.88,0,0,0-8-2.15l-2.31,1.34a5.87,5.87,0,0,0-2.15,8l4.36,7.56H130.54a5.87,5.87,0,0,0-5.87,5.87v2.67a5.87,5.87,0,0,0,5.87,5.87h34.93a12.23,12.23,0,0,0,10.74-6.24A12.71,12.71,0,0,0,176,147Z"/><path class="c" d="M82.78,151.4H55a5.88,5.88,0,0,0-2.15-8l-2.32-1.33a5.86,5.86,0,0,0-8,2.15L40.86,147a12.71,12.71,0,0,0-.21,12.59,12.23,12.23,0,0,0,10.74,6.24H82.78a5.86,5.86,0,0,0,5.86-5.87v-2.67A5.86,5.86,0,0,0,82.78,151.4Z"/></g><path class="d" d="M74.89,37.76,23.19,127.3A7.16,7.16,0,0,0,29.39,138H132.78A7.15,7.15,0,0,0,139,127.3L87.28,37.76A7.16,7.16,0,0,0,74.89,37.76Z"/><path class="e" d="M80.32,65h1.52A5.13,5.13,0,0,1,87,70.28L86.2,102a5.12,5.12,0,0,1-5.12,5h0A5.12,5.12,0,0,1,76,102l-.75-31.76A5.12,5.12,0,0,1,80.32,65Z"/><rect class="e" x="76.08" y="113.03" width="10" height="10" rx="5"/></svg>